<svg width="14" height="12" viewBox="0 0 14 12" fill="none" xmlns="http://www.w3.org/2000/svg">
<path fill-rule="evenodd" clip-rule="evenodd" d="M11.6523 7.48565C10.9734 7.48565 10.3072 7.39468 9.67581 7.21584C9.36614 7.12591 8.9861 7.20836 8.79728 7.37459L7.55136 8.18095C6.1064 7.51969 5.21587 6.75687 4.45462 5.52739L5.36861 4.48652C5.60612 4.28294 5.69032 3.98631 5.58809 3.70903C5.37883 3.16425 5.27238 2.59318 5.27238 2.01232C5.27241 1.59197 4.87373 1.25 4.38306 1.25H2.34763C1.85697 1.25 1.45831 1.59197 1.45831 2.01227C1.45831 6.83032 6.03127 10.75 11.6523 10.75C12.143 10.75 12.5416 10.408 12.5416 9.98768V8.24792C12.5416 7.82762 12.143 7.48565 11.6523 7.48565Z" fill="#646D78"/>
</svg>
