<svg width="21" height="20" viewBox="0 0 21 20" fill="none" xmlns="http://www.w3.org/2000/svg">
<g clip-path="url(#clip0_182_790)">
<path d="M17.63 2.87677C17.1367 2.38346 16.3398 2.38346 15.8465 2.87677L10.5 8.21064L5.15348 2.86412C4.66017 2.37081 3.86329 2.37081 3.36998 2.86412C2.87667 3.35743 2.87667 4.15432 3.36998 4.64763L8.7165 9.99414L3.36998 15.3407C2.87667 15.834 2.87667 16.6308 3.36998 17.1242C3.86329 17.6175 4.66018 17.6175 5.15348 17.1242L10.5 11.7776L15.8465 17.1242C16.3398 17.6175 17.1367 17.6175 17.63 17.1242C18.1233 16.6308 18.1233 15.834 17.63 15.3407L12.2835 9.99414L17.63 4.64763C18.1107 4.16697 18.1107 3.35743 17.63 2.87677Z" fill="#646D78"/>
</g>
<defs>
<clipPath id="clip0_182_790">
<rect width="20" height="20" fill="white" transform="translate(0.5 -0.00585938)"/>
</clipPath>
</defs>
</svg>
