<svg width="25" height="25" viewBox="0 0 25 25" fill="none" xmlns="http://www.w3.org/2000/svg">
<path fill-rule="evenodd" clip-rule="evenodd" d="M15.7271 16.7461C15.7271 16.967 15.548 17.1461 15.3271 17.1461H9.29781C9.07689 17.1461 8.89781 16.967 8.89781 16.7461V10.1676H15.7271V16.7461ZM14.4469 6.01895H10.0598L9.34356 6.72879H7.50119C7.13419 6.72879 6.83667 7.0263 6.83667 7.39331C6.83667 7.76031 7.13419 8.05783 7.50119 8.05783H17.0055C17.3725 8.05783 17.67 7.76031 17.67 7.39331C17.67 7.0263 17.3725 6.72879 17.0055 6.72879H15.1631L14.4469 6.01895ZM16.9537 8.93944H7.55292V17.0452C7.55292 17.8558 8.19755 18.519 8.98543 18.519H15.5212C16.3091 18.519 16.9537 17.8558 16.9537 17.0452V8.93944Z" fill="#646D78"/>
</svg>
