<svg width="25" height="25" viewBox="0 0 25 25" fill="none" xmlns="http://www.w3.org/2000/svg">
<path fill-rule="evenodd" clip-rule="evenodd" d="M17.2991 9.35362C17.6696 8.98813 17.6696 8.39024 17.2991 8.02476L15.0653 5.82107C14.7019 5.46254 14.1178 5.46254 13.7544 5.82107L6.86054 12.622C6.68276 12.7974 6.58268 13.0367 6.58268 13.2864V15.7442C6.58268 16.1124 6.88116 16.4108 7.24935 16.4108H9.76257C10.0079 16.4108 10.2434 16.3142 10.418 16.1419L17.2991 9.35362ZM14.2225 7.26213C14.3263 7.15969 14.4932 7.15969 14.597 7.26213L15.8508 8.499C15.9566 8.60342 15.9566 8.77425 15.8508 8.87867L9.77493 14.8726C9.65018 14.9957 9.48198 15.0647 9.30674 15.0647H8.21342C8.06615 15.0647 7.94676 14.9453 7.94676 14.798V13.732C7.94676 13.5536 8.01824 13.3827 8.14523 13.2574L14.2225 7.26213Z" fill="#646D78"/>
<path d="M17.9167 18.316C17.9167 17.9757 17.6408 17.6998 17.3004 17.6998H6.86627C6.52591 17.6998 6.25 17.9757 6.25 18.316C6.25 18.6564 6.52591 18.9323 6.86627 18.9323H17.3004C17.6408 18.9323 17.9167 18.6564 17.9167 18.316Z" fill="#646D78"/>
</svg>
