<svg width="10" height="10" viewBox="0 0 10 10" fill="none" xmlns="http://www.w3.org/2000/svg">
<path fill-rule="evenodd" clip-rule="evenodd" d="M9.16665 4.16665H5.83335V0.833347C5.83335 0.373346 5.46084 0 5 0C4.53916 0 4.16665 0.373346 4.16665 0.833347V4.16665H0.833347C0.372506 4.16665 0 4.54 0 5C0 5.46 0.372506 5.83335 0.833347 5.83335H4.16665V9.16665C4.16665 9.62665 4.53916 10 5 10C5.46084 10 5.83335 9.62665 5.83335 9.16665V5.83335H9.16665C9.62749 5.83335 10 5.46 10 5C10 4.54 9.62749 4.16665 9.16665 4.16665Z" fill="#5119F0"/>
</svg>
