<svg width="17" height="17" viewBox="0 0 17 17" fill="none" xmlns="http://www.w3.org/2000/svg">
<path fill-rule="evenodd" clip-rule="evenodd" d="M1.82031 7.87374C1.82031 4.75638 4.35664 2.22005 7.474 2.22005C10.5914 2.22005 13.1277 4.75638 13.1277 7.87374C13.1277 9.208 12.6582 10.4896 11.8013 11.5083L11.779 11.5348L14.4834 14.3617C14.7525 14.6416 14.7436 15.0879 14.4639 15.357C14.3323 15.4837 14.159 15.5534 13.9761 15.5534C13.783 15.5534 13.6028 15.4765 13.4689 15.3376L10.7401 12.4853L10.713 12.5044C9.75949 13.1745 8.64438 13.5274 7.474 13.5274C4.35664 13.5274 1.82031 10.9911 1.82031 7.87374ZM7.474 3.62787C5.13275 3.62787 3.22814 5.53248 3.22814 7.87374C3.22814 10.215 5.13275 12.1196 7.474 12.1196C9.81526 12.1196 11.7199 10.215 11.7199 7.87374C11.7199 5.53248 9.81526 3.62787 7.474 3.62787Z" fill="#646D78"/>
</svg>
