<svg width="37" height="37" viewBox="0 0 37 37" fill="none" xmlns="http://www.w3.org/2000/svg">
<rect x="0.90918" y="0.386719" width="36" height="36" rx="8" fill="#EFEDFF"/>
<path fill-rule="evenodd" clip-rule="evenodd" d="M25.2206 14.7467C25.6837 14.2898 25.6837 13.5425 25.2206 13.0856L22.4284 10.331C21.9741 9.88283 21.244 9.88283 20.7897 10.331L12.1724 18.8321C11.9501 19.0514 11.825 19.3505 11.825 19.6627V22.7349C11.825 23.1951 12.1981 23.5682 12.6584 23.5682H15.7999C16.1066 23.5682 16.4009 23.4475 16.6192 23.2321L25.2206 14.7467ZM21.3748 12.1323C21.5046 12.0043 21.7132 12.0043 21.843 12.1323L23.4102 13.6784C23.5425 13.8089 23.5425 14.0225 23.4102 14.153L15.8153 21.6454C15.6594 21.7993 15.4492 21.8855 15.2301 21.8855H13.8635C13.6794 21.8855 13.5301 21.7363 13.5301 21.5522V20.2197C13.5301 19.9967 13.6195 19.783 13.7782 19.6264L21.3748 12.1323Z" fill="#5119F0"/>
<path d="M25.9925 25.9497C25.9925 25.5242 25.6476 25.1794 25.2222 25.1794H12.1795C11.7541 25.1794 11.4092 25.5242 11.4092 25.9497C11.4092 26.3751 11.7541 26.72 12.1795 26.72H25.2222C25.6476 26.72 25.9925 26.3751 25.9925 25.9497Z" fill="#5119F0"/>
</svg>
